<svg id="Search" xmlns="http://www.w3.org/2000/svg" width="28.579" height="28.579" viewBox="0 0 28.579 28.579">
  <path id="Path_2" data-name="Path 2" d="M3.572,12.5A8.844,8.844,0,0,1,12.5,3.572,8.844,8.844,0,0,1,21.434,12.5,8.844,8.844,0,0,1,12.5,21.434,8.844,8.844,0,0,1,3.572,12.5Zm21.97,15.54a1.768,1.768,0,0,0,2.5-2.5l-5.537-5.537a12.23,12.23,0,0,0,2.5-7.5A12.426,12.426,0,0,0,12.5,0,12.426,12.426,0,0,0,0,12.5a12.426,12.426,0,0,0,12.5,12.5,12.23,12.23,0,0,0,7.5-2.5Z" transform="translate(0 0)" fill="#ededed"/>
</svg>
