<svg xmlns="http://www.w3.org/2000/svg" viewBox="0 0 62.4 28.8"><defs><style>.cls-1{fill:#ededed;}</style></defs><g id="Layer_2" data-name="Layer 2"><g id="Layer_1-2" data-name="Layer 1"><path class="cls-1" d="M19.52,7a.2.2,0,0,1-.11,0,.23.23,0,0,1-.12-.25,10.08,10.08,0,0,0-.57-4.1c-.33-1.16-.57-2-.22-2.42A.7.7,0,0,1,19.17,0h.06a12.11,12.11,0,0,1,4,2.75.24.24,0,0,1,0,.3A20.29,20.29,0,0,1,19.68,7,.25.25,0,0,1,19.52,7ZM19,.47a.22.22,0,0,0-.17.06c-.19.22.08,1.15.31,2a12.17,12.17,0,0,1,.65,3.7A19.15,19.15,0,0,0,22.72,3,11.31,11.31,0,0,0,19.09.48Z"/><path class="cls-1" d="M11.33,28.8C5.08,28.8,1.05,27.59.1,24.28a9.49,9.49,0,0,1,1.1-6c-.11-8.24,1.39-13,4.59-14.55,1.73-.38,2.71,1,3.75,2.55.34.49.69,1,1.07,1.45a3.92,3.92,0,0,0,3.33,1.53c3.26-.17,7.16-3.89,8.89-6.48A.25.25,0,0,1,23,2.7a.21.21,0,0,1,.17,0c1.32.92,2.41,1.66,3.45,2.33a.24.24,0,0,1,.07.32L25.22,7.81a.43.43,0,0,0,.15.57.35.35,0,0,0,.3,0,.4.4,0,0,0,.27-.19l1.41-2.38a.23.23,0,0,1,.15-.11.22.22,0,0,1,.18,0l2,1.22.08,0a.23.23,0,0,1,.11.15.19.19,0,0,1,0,.18L28.42,9.68a.4.4,0,0,0,.14.56.45.45,0,0,0,.32.06.43.43,0,0,0,.24-.17l1.5-2.37a.22.22,0,0,1,.31-.08l1.82,1a.24.24,0,0,1,.12.14.31.31,0,0,1,0,.19l-1.23,2a.48.48,0,0,0-.05.33.41.41,0,0,0,.19.24.39.39,0,0,0,.31.05.4.4,0,0,0,.26-.18l1.27-2.14a.24.24,0,0,1,.31-.09c.57.28,1.15.57,1.72.83a.24.24,0,0,1,.12.14.25.25,0,0,1,0,.19q-.19.36-.39.75c-.19.38-.39.77-.58,1.11a.41.41,0,1,0,.72.41c.19-.33.37-.69.56-1l.46-.9a.24.24,0,0,1,.31-.1c.57.27,1.15.51,1.74.76a.24.24,0,0,1,.13.13.22.22,0,0,1,0,.18c-.09.21-.21.44-.32.68s-.35.7-.47,1a.41.41,0,0,0,.19.54.43.43,0,0,0,.57-.21c.12-.29.29-.65.47-1s.25-.51.34-.73a.24.24,0,0,1,.31-.12,49.78,49.78,0,0,0,20,3.56h.07a3.45,3.45,0,0,1,2.37,1.69,4.2,4.2,0,0,1-.3,3.47l-.05.07c-6.11,6.23-17.9,8.48-36,6.87A110.39,110.39,0,0,1,11.33,28.8Zm-5-24.65a1.72,1.72,0,0,0-.39,0C3,5.64,1.56,10.28,1.68,18.36a.27.27,0,0,1,0,.12A9,9,0,0,0,.56,24.19c1.54,5.35,13,4.55,25.18,2.88,18,1.59,29.68-.6,35.69-6.7a3.76,3.76,0,0,0,.29-3,2.94,2.94,0,0,0-2-1.42,50.22,50.22,0,0,1-19.9-3.52l-.26.54c-.17.34-.34.68-.46,1a.89.89,0,0,1-1.18.45.85.85,0,0,1-.47-.48.92.92,0,0,1,0-.69c.12-.29.3-.65.47-1l.22-.44-1.32-.57q-.18.33-.36.69l-.56,1.07a.9.9,0,0,1-1.56-.88c.2-.34.39-.72.58-1.1l.27-.53-1.3-.64-1.16,2a1,1,0,0,1-.56.4.86.86,0,0,1-.66-.12.79.79,0,0,1-.4-.52.88.88,0,0,1,.09-.69L32.31,9,30.9,8.2l-1.38,2.18a.86.86,0,0,1-.53.38.93.93,0,0,1-.69-.12A.89.89,0,0,1,28,9.42l1.33-2.1-1.71-1-1.3,2.19a.94.94,0,0,1-.54.4.81.81,0,0,1-.68-.1.9.9,0,0,1-.31-1.2l1.35-2.24c-.94-.61-1.92-1.27-3.07-2.07-1.73,2.49-5.6,6.3-9.12,6.48a4.36,4.36,0,0,1-3.73-1.7c-.39-.47-.75-1-1.09-1.48C8.26,5.28,7.48,4.15,6.34,4.15Z"/><path class="cls-1" d="M57.45,20.91a.25.25,0,0,1-.24-.19,8.67,8.67,0,0,1,.59-5.11.24.24,0,0,1,.21-.14c.57,0,1.14,0,1.7,0h.08A3.5,3.5,0,0,1,62.1,17a3.65,3.65,0,0,1,0,2.88.25.25,0,0,1-.18.15c-1.63.36-3.23.64-4.44.84Zm.72-5a8.27,8.27,0,0,0-.64,3.17,8,8,0,0,0,.11,1.28c1.14-.19,2.58-.44,4.06-.76a3.11,3.11,0,0,0,0-2.38,3,3,0,0,0-2-1.35Z"/><path class="cls-1" d="M8.47,19.64h0c-2.2-.3-4.43-.64-6.58-1l-.45-.07a.23.23,0,0,1-.2-.23,41.74,41.74,0,0,1,.38-6.92.21.21,0,0,1,.1-.16.22.22,0,0,1,.18,0A8.5,8.5,0,0,1,8.71,19.4a.25.25,0,0,1-.08.18A.23.23,0,0,1,8.47,19.64ZM1.68,18.16l.25,0c2.06.31,4.19.64,6.29.93A8,8,0,0,0,2,11.77,41.86,41.86,0,0,0,1.68,18.16Z"/><path class="cls-1" d="M39.46,16.34c-6.66,0-13.1-3.6-20.55-9a.22.22,0,0,1-.1-.18A.25.25,0,0,1,18.9,7,19.4,19.4,0,0,0,22.83,2.8.25.25,0,0,1,23,2.7a.21.21,0,0,1,.17,0c1.32.92,2.41,1.66,3.45,2.33a.24.24,0,0,1,.07.32L25.22,7.81a.43.43,0,0,0,.15.57.35.35,0,0,0,.3,0,.4.4,0,0,0,.27-.19l1.41-2.38a.23.23,0,0,1,.15-.11.22.22,0,0,1,.18,0l2,1.22.08,0a.23.23,0,0,1,.11.15.19.19,0,0,1,0,.18L28.42,9.68a.4.4,0,0,0,.14.56.45.45,0,0,0,.32.06.43.43,0,0,0,.24-.17l1.5-2.37a.22.22,0,0,1,.31-.08l1.82,1a.24.24,0,0,1,.12.14.31.31,0,0,1,0,.19l-1.23,2a.48.48,0,0,0-.05.33.41.41,0,0,0,.19.24.39.39,0,0,0,.31.05.4.4,0,0,0,.26-.18l1.27-2.14a.24.24,0,0,1,.31-.09c.57.28,1.15.57,1.72.83a.24.24,0,0,1,.12.14.25.25,0,0,1,0,.19q-.19.36-.39.75c-.19.38-.39.77-.58,1.11a.41.41,0,1,0,.72.41c.19-.33.37-.69.56-1l.46-.9a.24.24,0,0,1,.31-.1c.57.27,1.15.51,1.74.76a.24.24,0,0,1,.13.13.22.22,0,0,1,0,.18c-.09.21-.21.44-.32.68s-.35.7-.47,1a.41.41,0,0,0,.19.54.43.43,0,0,0,.57-.21c.12-.29.29-.65.47-1s.25-.51.34-.73a.24.24,0,0,1,.31-.12c1.4.54,2.89,1.06,4.43,1.53a.24.24,0,0,1,.17.19c.2,1.32-.74,2.21-2.8,2.63A16.64,16.64,0,0,1,39.46,16.34Zm-20-9.17c8,5.76,14.86,9.41,22,8.59,2.36-.49,2.47-1.48,2.43-1.95-1.43-.44-2.81-.92-4.12-1.42l-.26.54c-.17.34-.34.68-.46,1a.89.89,0,0,1-1.18.45.85.85,0,0,1-.47-.48.92.92,0,0,1,0-.69c.12-.29.3-.65.47-1l.22-.44-1.32-.57q-.18.33-.36.69l-.56,1.07a.9.9,0,0,1-1.56-.88c.2-.34.39-.72.58-1.1l.27-.53-1.3-.64-1.16,2a1,1,0,0,1-.56.4.86.86,0,0,1-.66-.12.79.79,0,0,1-.4-.52.88.88,0,0,1,.09-.69L32.31,9,30.9,8.2l-1.38,2.18a.86.86,0,0,1-.53.38.93.93,0,0,1-.69-.12A.89.89,0,0,1,28,9.42l1.33-2.1-1.71-1-1.3,2.19a.94.94,0,0,1-.54.4.81.81,0,0,1-.68-.1.9.9,0,0,1-.31-1.2l1.35-2.24c-.94-.61-1.92-1.27-3.07-2.07A20,20,0,0,1,19.44,7.17Z"/><path class="cls-1" d="M11.33,28.8C5.08,28.8,1.05,27.59.1,24.28a9.51,9.51,0,0,1,1.13-6,.25.25,0,0,1,.25-.12C23,21.42,42.33,23.81,61.83,19.61a.23.23,0,0,1,.23.08.21.21,0,0,1,0,.23l-.06.17c0,.16-.12.33-.19.5a.14.14,0,0,1-.05.08c-6.11,6.23-17.9,8.48-36,6.87A110.39,110.39,0,0,1,11.33,28.8ZM1.57,18.62a9,9,0,0,0-1,5.57c1.54,5.35,13,4.55,25.18,2.88,18,1.59,29.67-.6,35.69-6.7a1.8,1.8,0,0,0,.08-.21C42.13,24.24,22.88,21.89,1.57,18.62Z"/><path class="cls-1" d="M11.34,28.8c-6.16,0-10.17-1.18-11.2-4.38a.24.24,0,0,1,.08-.26.24.24,0,0,1,.28,0c5.59,3.95,15.4,3.31,25.17,2,15.85,1.2,27.43-.61,35.46-5.52a.23.23,0,0,1,.31.06.22.22,0,0,1,0,.31c-6.21,6-17.88,8.09-35.66,6.51A112,112,0,0,1,11.34,28.8ZM.89,25c2.48,4.45,13.37,3.65,24.85,2.08,16,1.41,26.9-.14,33.38-4.75-8,4-18.95,5.43-33.44,4.33C16.24,27.9,6.7,28.54.89,25Z"/><path class="cls-1" d="M38.26,14.43a.8.8,0,0,1-.37-.08.85.85,0,0,1-.47-.48.92.92,0,0,1,0-.69c.11-.25.26-.56.41-.87s.3-.61.42-.87A.89.89,0,0,1,39.43,11a.9.9,0,0,1,.46,1.19c-.1.21-.22.47-.35.73s-.35.71-.47,1h0A.89.89,0,0,1,38.26,14.43Zm.84-3a.43.43,0,0,0-.39.25c-.11.27-.27.58-.42.89s-.3.61-.41.86a.41.41,0,0,0,.19.54.44.44,0,0,0,.57-.2c.12-.3.3-.67.47-1s.25-.5.34-.72a.42.42,0,0,0-.2-.56Zm-.25,2.43h0Zm-3.73-.44a.91.91,0,0,1-.43-.1.92.92,0,0,1-.35-1.22c.2-.36.41-.75.61-1.15s.33-.64.49-.93a.89.89,0,0,1,1.2-.34.88.88,0,0,1,.43.53.81.81,0,0,1-.08.66c-.21.38-.42.79-.62,1.2l-.47.9h0A.9.9,0,0,1,35.12,13.37ZM36.21,10a.4.4,0,0,0-.35.21c-.16.29-.32.6-.49.92s-.41.8-.61,1.16a.43.43,0,0,0,.15.57.42.42,0,0,0,.57-.16c.16-.28.31-.58.46-.89s.42-.83.64-1.21a.39.39,0,0,0,0-.3.41.41,0,0,0-.2-.25A.46.46,0,0,0,36.21,10Zm-.52,2.82ZM32,12.16a.86.86,0,0,1-.46-.14.79.79,0,0,1-.4-.52.88.88,0,0,1,.09-.69c.5-.8,1-1.59,1.44-2.4a.89.89,0,1,1,1.53.9c-.24.41-.48.82-.73,1.22s-.48.8-.71,1.2h0a.9.9,0,0,1-.55.4Zm1.45-3.71a.43.43,0,0,0-.37.2c-.47.81-.95,1.61-1.44,2.41a.44.44,0,0,0-.05.32.41.41,0,0,0,.19.24.39.39,0,0,0,.31.05.37.37,0,0,0,.26-.18l.72-1.2.72-1.22a.42.42,0,0,0-.15-.57A.45.45,0,0,0,33.42,8.45Zm-.9,3.17h0Zm-3.73-.84a1,1,0,0,1-.49-.14A.89.89,0,0,1,28,9.42c.4-.61.72-1.12,1.05-1.66l.58-.91a.89.89,0,0,1,1.63.28.9.9,0,0,1-.13.68l-.56.87c-.35.55-.68,1.07-1.07,1.7h0a.86.86,0,0,1-.53.38ZM30.42,6.9a.44.44,0,0,0-.37.21l-.58.9c-.33.54-.66,1.05-1,1.67a.4.4,0,0,0,.14.56.45.45,0,0,0,.32.06.43.43,0,0,0,.24-.17h0l1.07-1.71.56-.87a.41.41,0,0,0,.07-.32A.47.47,0,0,0,30.64,7,.43.43,0,0,0,30.42,6.9Zm-1.1,3.35h0ZM25.57,8.91a.81.81,0,0,1-.45-.13.9.9,0,0,1-.31-1.2c.59-1,1.05-1.75,1.6-2.68l.13-.21a.89.89,0,0,1,1.53.9c-.59,1-1.06,1.75-1.61,2.69l-.12.2h0a.94.94,0,0,1-.54.4Zm1.74-4.18a.46.46,0,0,0-.37.21l-.12.2c-.55.93-1,1.72-1.6,2.68a.42.42,0,0,0,.15.56.35.35,0,0,0,.3,0,.38.38,0,0,0,.26-.19L26.05,8c.55-.94,1-1.73,1.61-2.69a.43.43,0,0,0-.15-.57A.46.46,0,0,0,27.31,4.73ZM26.14,8.36Z"/></g></g></svg>