<svg xmlns="http://www.w3.org/2000/svg" viewBox="0 0 62.77 25.66"><defs><style>.cls-1{fill:#ededed;}</style></defs><g id="Layer_2" data-name="Layer 2"><g id="Layer_1-2" data-name="Layer 1"><path class="cls-1" d="M12.46,6.06A26.73,26.73,0,0,1,1.38,3.41a.25.25,0,0,1-.13-.3A.26.26,0,0,1,1.54,3c9.13,2.37,17.54,1.38,25-2.93a.24.24,0,0,1,.31.07.25.25,0,0,1,0,.32C22.33,4.19,17.58,6.06,12.46,6.06ZM4.19,4c7.38,2.65,14,1.89,20.12-2.31A32.29,32.29,0,0,1,4.19,4Z"/><path class="cls-1" d="M39,25.66a34.13,34.13,0,0,1-12-2.44,39.68,39.68,0,0,0-10-1.8A3.79,3.79,0,0,0,15.91,24a.24.24,0,0,1-.22.21,51.64,51.64,0,0,1-15.26-1,.23.23,0,0,1-.19-.2,22.94,22.94,0,0,1,0-6.62v0a.25.25,0,0,1,0-.07.27.27,0,0,1,.08-.07l.1,0H.57A1.82,1.82,0,0,0,1,16.4l.06,0H1l.18.07.2.08,0,0,.2.06a.49.49,0,0,0,.17.06l.06,0,.3.1.14,0,.21.08.17.06h.06l.39.12.12,0,.28.07.15.05.16,0,.18.05.13,0a2.14,2.14,0,0,0,.27.06l.11,0,.35.09.09,0a1,1,0,0,1,.3.07h.16l.16,0,.17.05.1,0,.34.07.25,0,.17,0a.23.23,0,0,1,.2.26.24.24,0,0,1-.27.21l-.21-.05-.17,0H6.11l-.36-.08,0,0h0l-.16-.05-.16,0H5.22l-.07,0a2.3,2.3,0,0,0-.28-.06l-.09,0a2.22,2.22,0,0,1-.36-.1H4.35A1.44,1.44,0,0,1,4,17.9l-.13,0-.15,0-.21-.06-.11,0a1.49,1.49,0,0,1-.29-.06L3,17.61l-.37-.11H2.56l-.21-.08-.17-.06L2,17.3a2.33,2.33,0,0,1-.31-.11h0l-.2-.07a1.15,1.15,0,0,0-.17-.06l-.07,0L1,17l-.17-.07-.08,0-.11,0a22.54,22.54,0,0,0,0,6,51.08,51.08,0,0,0,14.78.94A4.12,4.12,0,0,1,16.8,21a.25.25,0,0,1,.15,0,39.7,39.7,0,0,1,10.18,1.83,31.41,31.41,0,0,0,14.16,2.3c6.5-.61,16.45-4.08,21-8.28a1.4,1.4,0,0,0-.17-.74c-10.66,7.51-21,9.7-31.71,6.7a55.2,55.2,0,0,0-14.95-3.14h-.24l-.25,0h-.11l-.84-.1h-.09l-.87-.09H13l-.45-.06-.48,0-.46,0-2.7-.35a.22.22,0,0,1-.2-.26A.25.25,0,0,1,9,18.4l2.67.35.46,0,.47.05.45.06h.05L14,19H14l.86.1H15l.5.06c5,.52,9.87,1.14,15.05,3.16,10.57,3,20.87.76,31.48-6.77a.24.24,0,0,1,.32,0,1.79,1.79,0,0,1,.4,1.34.25.25,0,0,1-.08.16C58,21.5,47.91,24.92,41.34,25.55,40.56,25.62,39.78,25.66,39,25.66Z"/><path class="cls-1" d="M39.56,24.05a33.81,33.81,0,0,1-9.15-1.3c-5.62-2.19-10.89-2.72-16-3.24-4.88-.49-9.49-1-14-2.81a.25.25,0,0,1-.14-.2,38.59,38.59,0,0,1,1-13.37A.26.26,0,0,1,1.37,3a.26.26,0,0,1,.21,0C10.94,7.24,19.09,6.28,26.51.06a.24.24,0,0,1,.29,0l.64.47,1.17.84a.24.24,0,0,1,.09.17.26.26,0,0,1-.06.19L26.52,4a.38.38,0,0,0,0,.52.36.36,0,0,0,.49,0l2.23-2.38a.24.24,0,0,1,.31,0l1.56,1.14c.44.33.86.65,1.28.95a.22.22,0,0,1,.1.15.27.27,0,0,1,0,.18L30.74,6.8a.36.36,0,0,0-.06.25.35.35,0,0,0,.14.23.36.36,0,0,0,.51-.06l1.72-2.33a.24.24,0,0,1,.33,0c1.08.77,2,1.38,2.8,1.93a.23.23,0,0,1,.07.31L34.91,9.56a.37.37,0,0,0,0,.29.34.34,0,0,0,.17.2.37.37,0,0,0,.29,0,.34.34,0,0,0,.2-.17l1.33-2.43A.26.26,0,0,1,37,7.36a.19.19,0,0,1,.18,0c4.56,2.77,8.58,3.68,16,3.64h.24c5.9,0,8.86,1.53,9,4.68a.22.22,0,0,1-.1.2C54.65,21.35,47.14,24.05,39.56,24.05ZM.69,16.31c4.46,1.79,9,2.25,13.79,2.73,5.12.52,10.42,1.05,16.08,3.26,10.53,3,20.8.77,31.38-6.7-.25-2.79-3.13-4.13-8.8-4.1-7.35.05-11.43-.85-16-3.58L36,10.13a.78.78,0,0,1-.47.4.84.84,0,0,1-.66-.06.78.78,0,0,1-.4-.49.82.82,0,0,1,.07-.65L35.73,7c-.73-.48-1.51-1-2.44-1.68L31.71,7.5a.84.84,0,0,1-1.5-.38.78.78,0,0,1,.15-.6l1.58-2.14-1.1-.81-1.38-1L27.39,4.78a.82.82,0,0,1-1.16,0,.85.85,0,0,1-.07-1.18l1.95-2.07L27.16.89,26.68.54c-7.47,6.19-15.66,7.17-25,3A38.13,38.13,0,0,0,.69,16.31Z"/><path class="cls-1" d="M15.48,19.62h0l-1-.1C9.57,19,5,18.55.38,16.7a.23.23,0,0,1-.14-.2,38.59,38.59,0,0,1,1-13.37A.26.26,0,0,1,1.37,3a.26.26,0,0,1,.21,0C10.94,7.24,19.09,6.28,26.51.06a.24.24,0,0,1,.29,0l.64.47,1.17.84a.24.24,0,0,1,.09.17.26.26,0,0,1-.06.19L26.52,4a.38.38,0,0,0,0,.52.36.36,0,0,0,.49,0l2.23-2.38a.24.24,0,0,1,.31,0l1.56,1.14c.44.33.86.65,1.28.95a.22.22,0,0,1,.1.15.27.27,0,0,1,0,.18L30.74,6.8a.36.36,0,0,0-.06.25.35.35,0,0,0,.14.23.36.36,0,0,0,.51-.06l1.72-2.33a.24.24,0,0,1,.33,0c1.08.77,2,1.38,2.8,1.93a.23.23,0,0,1,.07.31L34.91,9.56a.37.37,0,0,0,0,.29.34.34,0,0,0,.17.2.37.37,0,0,0,.29,0,.34.34,0,0,0,.2-.17l1.33-2.43A.26.26,0,0,1,37,7.36a.19.19,0,0,1,.18,0l1.19.7a.22.22,0,0,1,.12.21A14.25,14.25,0,0,1,35.67,17a.25.25,0,0,1-.24.09C24,15,17.71,15.72,15.69,19.49A.23.23,0,0,1,15.48,19.62ZM.69,16.31C5.16,18.1,9.7,18.56,14.5,19l.85.09c2.2-3.85,8.58-4.66,20-2.55A13.82,13.82,0,0,0,38,8.43l-.86-.51L36,10.13a.78.78,0,0,1-.47.4.84.84,0,0,1-.66-.06.78.78,0,0,1-.4-.49.82.82,0,0,1,.07-.65L35.73,7c-.73-.48-1.51-1-2.44-1.68L31.71,7.5a.84.84,0,0,1-1.5-.38.78.78,0,0,1,.15-.6l1.58-2.14-1.1-.81-1.38-1L27.39,4.78a.82.82,0,0,1-1.16,0,.85.85,0,0,1-.07-1.18l1.95-2.07L27.16.89,26.68.54c-7.47,6.19-15.66,7.17-25,3A38.13,38.13,0,0,0,.69,16.31Z"/><path class="cls-1" d="M35.22,10.57a.79.79,0,0,1-.4-.1.78.78,0,0,1-.4-.49.82.82,0,0,1,.07-.65l1.63-3A.86.86,0,0,1,37.26,6a.88.88,0,0,1,.4.51.82.82,0,0,1-.08.63l-1.63,3a.78.78,0,0,1-.47.4A.82.82,0,0,1,35.22,10.57Zm1.66-4.2a.44.44,0,0,0-.35.2l-1.62,3a.37.37,0,0,0,0,.29.34.34,0,0,0,.17.2.37.37,0,0,0,.29,0,.34.34,0,0,0,.2-.17h0l1.63-3a.32.32,0,0,0,0-.27A.35.35,0,0,0,37,6.41.33.33,0,0,0,36.88,6.37ZM31,7.84a.79.79,0,0,1-.5-.18.81.81,0,0,1-.33-.54.78.78,0,0,1,.15-.6l2-2.67a.82.82,0,0,1,.55-.33.8.8,0,0,1,.6.15.83.83,0,0,1,.18,1.16l-2,2.67h0A.82.82,0,0,1,31,7.84ZM33,4H33a.33.33,0,0,0-.24.14l-2,2.67a.36.36,0,0,0-.06.25.35.35,0,0,0,.14.23.36.36,0,0,0,.51-.06l2-2.67a.42.42,0,0,0,.06-.27.39.39,0,0,0-.14-.23A.31.31,0,0,0,33,4Zm-1.5,3.38ZM26.79,5a.83.83,0,0,1-.63-1.39l2.4-2.55A.83.83,0,0,1,29.72,1a.87.87,0,0,1,.28.59.87.87,0,0,1-.22.61L27.39,4.77A.77.77,0,0,1,26.79,5Zm2.37-3.73a.36.36,0,0,0-.26.11L26.52,4a.38.38,0,0,0,0,.52.36.36,0,0,0,.49,0h0l2.39-2.54a.31.31,0,0,0,.09-.26.3.3,0,0,0-.12-.25A.34.34,0,0,0,29.16,1.31Z"/></g></g></svg>