<svg xmlns="http://www.w3.org/2000/svg" viewBox="0 0 73.32 29.47"><defs><style>.cls-1{fill:#ededed;}</style></defs><g id="Layer_2" data-name="Layer 2"><g id="Layer_1-2" data-name="Layer 1"><path class="cls-1" d="M42.22,25.35c-7.3,0-12.61-1.6-18.06-3.24-6.3-1.89-12.8-3.84-22.83-3.16a.26.26,0,0,1-.25-.17A18.93,18.93,0,0,1,3.63,1.88.25.25,0,0,1,4,1.81,26.24,26.24,0,0,0,21.22,6.34a5.87,5.87,0,0,0,.67-.08c.72-.1.78,0,1.55.57l.12.1,1.69,1.38-1-1.08c-1.36-1.49-1.2-3.41.45-5.12s4.59-2.79,6-1.6A82.36,82.36,0,0,0,43,9.37c7.85,4.11,10.44,4.41,19,4,6.13-.32,9.43,1.48,10.1,5.5a.24.24,0,0,1-.15.26C58.68,23.78,49.47,25.35,42.22,25.35Zm-36.91-7c7.92,0,13.53,1.69,19,3.33,10.77,3.24,21,6.3,47.33-2.92-.7-3.6-3.84-5.21-9.58-4.91-8.7.43-11.31.12-19.28-4.05A82.11,82.11,0,0,1,30.4.87c-1.18-1-3.84,0-5.34,1.57-.7.73-2.14,2.61-.44,4.47L26.2,8.64l1.57,1.72a.26.26,0,0,1,0,.33.24.24,0,0,1-.32,0L25.35,9,23.26,7.29l-.12-.09c-.67-.54-.67-.54-1.18-.47l-.69.09A26.77,26.77,0,0,1,3.9,2.34,18.39,18.39,0,0,0,1.48,18.46C2.82,18.37,4.09,18.33,5.31,18.33Z"/><path class="cls-1" d="M42.22,25.35c-7.3,0-12.61-1.6-18.06-3.24-6.3-1.89-12.8-3.84-22.83-3.16a.26.26,0,0,1-.25-.17A18.93,18.93,0,0,1,3.63,1.88.23.23,0,0,1,4,1.82c.58.38,1.23.77,2.11,1.26a.24.24,0,0,1,.11.28,19.08,19.08,0,0,0-1.11,5,12.94,12.94,0,0,0,.41,4.39c.55,2,2.63,1.9,5.27,1.82a23.57,23.57,0,0,1,3.84.09,80.91,80.91,0,0,1,15.64,3.54c11.53,3.44,23.45,7,41.14-1a.25.25,0,0,1,.19,0,.24.24,0,0,1,.13.13,7.11,7.11,0,0,1,.43,1.55.24.24,0,0,1-.15.26C58.68,23.78,49.47,25.35,42.22,25.35Zm-36.91-7c7.92,0,13.53,1.69,19,3.33,10.77,3.24,21,6.3,47.33-2.92a8.32,8.32,0,0,0-.28-1c-17.73,8-29.68,4.43-41.24,1-5.21-1.56-10.12-3-15.56-3.53a22.79,22.79,0,0,0-3.78-.09C8,15.16,5.67,15.24,5,12.92A13.43,13.43,0,0,1,4.6,8.36a19.47,19.47,0,0,1,1.07-5C5,3,4.4,2.67,3.9,2.34A18.39,18.39,0,0,0,1.48,18.46C2.82,18.37,4.09,18.33,5.31,18.33Z"/><path class="cls-1" d="M41.71,29.47a69.38,69.38,0,0,1-13.27-1.24,45.79,45.79,0,0,1-5.23-1.65c-2.75-1-5.58-2-7.6-1.87a1.48,1.48,0,0,0-1.07.39c-.35.4-.29,1.15-.21,2,0,.41.07.87.07,1.34a.21.21,0,0,1-.08.17.23.23,0,0,1-.17.07L.44,27.91a.24.24,0,0,1-.22-.21,34.74,34.74,0,0,1-.08-7A2.45,2.45,0,0,1,.79,19l.33-.44a.23.23,0,0,1,.17-.1c10.12-.68,16.67,1.29,23,3.19,10.8,3.25,21,6.31,47.52-3h0a.9.9,0,0,1,.81.15,2.56,2.56,0,0,1,.69,2,7,7,0,0,1-.27,1.57.26.26,0,0,1-.12.15C64.42,27,52.92,29.47,41.71,29.47ZM16,24.22c2.06,0,4.78,1,7.41,1.92a45.21,45.21,0,0,0,5.17,1.62c14.51,2.87,32.21.62,44.07-5.59a5.45,5.45,0,0,0,.23-1.36,2.13,2.13,0,0,0-.5-1.62.4.4,0,0,0-.38-.07c-26.67,9.35-36.93,6.26-47.8,3-6.27-1.88-12.76-3.83-22.72-3.17l-.28.36a2,2,0,0,0-.54,1.4,34,34,0,0,0,.05,6.75l13.25.77c0-.36,0-.71-.07-1a3.21,3.21,0,0,1,.33-2.38,1.94,1.94,0,0,1,1.41-.56Z"/></g></g></svg>