<svg xmlns="http://www.w3.org/2000/svg" viewBox="0 0 65.86 19.95"><defs><style>.cls-1{fill:#ededed;}</style></defs><g id="Layer_2" data-name="Layer 2"><g id="Layer_1-2" data-name="Layer 1"><path class="cls-1" d="M65.29,18c-.25,0-.5-.08-.73-.13H1.05a1,1,0,0,0-1,1A1,1,0,0,0,1.05,20H64.81a1,1,0,0,0,1-1.05A1,1,0,0,0,65.29,18Zm-.48,1.5H1.05a.59.59,0,0,1-.58-.58.57.57,0,0,1,.58-.58H64.81a.57.57,0,0,1,.58.58A.59.59,0,0,1,64.81,19.48Z"/><path class="cls-1" d="M64.56,17.85H1.29l0-2.94c2.88-.05,30.57-.78,33.39-13.36,3.79,2.74,9.55,3.5,15.14,4.24,2.32.3,4.56.62,6.6,1.06a4.57,4.57,0,0,1-.56-.6c-1.89-.37-3.9-.66-6-.93C44.19,4.57,38.32,3.8,34.65,1a.24.24,0,0,0-.23,0,.23.23,0,0,0-.15.18C31.87,14.28,1.34,14.43,1,14.43a.24.24,0,0,0-.23.24l0,3.41a.23.23,0,0,0,.23.24H64.81a.25.25,0,0,0,.23-.17c0-.07,0-.14,0-.2Z"/><path class="cls-1" d="M56,18.32h-55a.23.23,0,0,1-.23-.24l0-3.41A.24.24,0,0,1,1,14.43c.31,0,30.84-.15,33.24-13.33a.23.23,0,0,1,.15-.18.24.24,0,0,1,.23,0C38.33,3.8,44.2,4.57,49.88,5.32c2,.27,3.9.52,5.7.86a.23.23,0,0,1,.14.07c2.74,3.13,3,9.63.46,12A.27.27,0,0,1,56,18.32ZM1.29,17.85H55.92c2.07-2.06,2.16-8.11-.5-11.22-1.77-.33-3.63-.58-5.6-.84-5.59-.73-11.37-1.5-15.16-4.24C31.84,14.13,4.15,14.86,1.27,14.91Z"/><path class="cls-1" d="M1,14.91a1,1,0,1,1,0-2c.29,0,29.6-.15,31.77-12.07a1,1,0,0,1,.39-.64A1,1,0,0,1,33.92,0a1,1,0,0,1,.65.41,1.05,1.05,0,0,1,.17.75C32.26,14.75,1.33,14.91,1,14.91ZM33.74.47a.54.54,0,0,0-.3.1.5.5,0,0,0-.2.34C31,13.23,1.29,13.37,1,13.37a.54.54,0,0,0-.53.54.52.52,0,0,0,.54.52c.32,0,30.86-.19,33.26-13.33a.57.57,0,0,0-.09-.4.56.56,0,0,0-.35-.22Z"/></g></g></svg>