<svg xmlns="http://www.w3.org/2000/svg" viewBox="0 0 70.66 44.85"><defs><style>.cls-1{fill:#ededed;}</style></defs><g id="Layer_2" data-name="Layer 2"><g id="Layer_1-2" data-name="Layer 1"><path class="cls-1" d="M47.13,44.85c-.76,0-1.52,0-2.24,0a.26.26,0,0,1-.21-.14l-.58-1.26-.54,1.17a.24.24,0,0,1-.23.13,48.08,48.08,0,0,1-5.45-.65.22.22,0,0,1-.19-.17l-.3-1.26-.76,1.06a.23.23,0,0,1-.23.09,78.36,78.36,0,0,1-13.08-4v3.56a.23.23,0,0,1-.24.23H.55a.23.23,0,0,1-.24-.21,43.82,43.82,0,0,1,0-9.16.22.22,0,0,1,0-.12l1-1.26a.26.26,0,0,1,.18-.09c12.94.09,22.76,1.23,31.83,3.69,12.56,3.86,24.31,2.45,35.92-4.32a.24.24,0,0,1,.23,0l.62.35.22.12a.26.26,0,0,1,.12.17,17,17,0,0,1,0,5.34.25.25,0,0,1-.11.17,42.69,42.69,0,0,1-7.58,3.81.24.24,0,0,1-.26-.06l-.68-.74-.13,1a.24.24,0,0,1-.15.2,43.89,43.89,0,0,1-4.46,1.28.24.24,0,0,1-.25-.1l-.62-.91-.3,1.1a.25.25,0,0,1-.19.17,41.74,41.74,0,0,1-4.67.63.25.25,0,0,1-.23-.14l-.56-1.21-.6,1.31a.26.26,0,0,1-.21.14C48.69,44.85,47.9,44.85,47.13,44.85Zm-2.08-.5c1.35,0,2.83.06,4.24,0L50,42.7a.26.26,0,0,1,.22-.14h0a.24.24,0,0,1,.21.14l.71,1.54c1.62-.15,3-.33,4.31-.58l.4-1.45a.24.24,0,0,1,.18-.18.27.27,0,0,1,.24.1l.82,1.2a40.32,40.32,0,0,0,4.11-1.18l.17-1.41a.22.22,0,0,1,.17-.19.22.22,0,0,1,.24.06l.92,1A42.54,42.54,0,0,0,70,38a16.59,16.59,0,0,0,0-5l-.12-.07-.5-.28c-11.69,6.78-23.53,8.18-36.17,4.29-9-2.43-18.75-3.56-31.58-3.66l-.86,1.1a43,43,0,0,0,0,8.79H22.84V39.48a.25.25,0,0,1,.33-.22,79.91,79.91,0,0,0,13.17,4l1-1.36a.24.24,0,0,1,.24-.09.21.21,0,0,1,.18.17l.38,1.61a48.74,48.74,0,0,0,5.08.61l.69-1.48a.24.24,0,0,1,.22-.14h0a.23.23,0,0,1,.21.14Z"/><path class="cls-1" d="M46.81,39.06a45.87,45.87,0,0,1-13.6-2.14c-9-2.44-18.8-3.57-31.7-3.66a.24.24,0,0,1-.22-.16C-1.34,25.73.58,19,2.45,12.58c-.66-3.72-.89-6.5.15-8a2.4,2.4,0,0,1,1.62-1,.11.11,0,0,1,.08,0c5.7,1.05,13,1.79,19.23-1.9C25.7.43,27.47-.32,29.11.13a4.69,4.69,0,0,1,2.76,2.55c5.86,14.82,13.18,23.78,31.7,22.75,3.54-.12,5.57,2.19,6.05,6.9a.25.25,0,0,1-.12.23A44.46,44.46,0,0,1,46.81,39.06ZM1.68,32.78c12.86.1,22.62,1.24,31.66,3.69,12.51,3.84,24.22,2.46,35.79-4.24-.48-4.38-2.3-6.44-5.54-6.33-18.78,1.06-26.23-8-32.15-23A4.22,4.22,0,0,0,29,.59C27.51.18,25.83.9,23.77,2.1c-6.31,3.77-13.74,3-19.51,2A1.91,1.91,0,0,0,3,4.88c-1,1.43-.63,4.53-.07,7.67a.17.17,0,0,1,0,.1C1.08,19-.83,25.6,1.68,32.78Z"/><path class="cls-1" d="M60.74,36.61a.22.22,0,0,1-.21-.12,10.72,10.72,0,0,1-1.34-5.18,10.46,10.46,0,0,1,1.65-5.68.29.29,0,0,1,.2-.11c.81,0,1.66,0,2.53-.09,3.56-.13,5.57,2.19,6.05,6.9a.25.25,0,0,1-.12.23,50.22,50.22,0,0,1-8.68,4ZM61.17,26a10.08,10.08,0,0,0-1.5,5.32,10.21,10.21,0,0,0,1.18,4.77,49.34,49.34,0,0,0,8.28-3.85c-.48-4.38-2.3-6.44-5.54-6.33C62.76,26,62,26,61.17,26Z"/><path class="cls-1" d="M44.73,29.36c-1.58,0-3.53-.69-6-2.11-7.7-4.47-12.85-12.35-16.24-24.8a.24.24,0,0,1,.12-.27l.88-.49C25.7.43,27.47-.32,29.11.13a4.69,4.69,0,0,1,2.76,2.55c4.81,12.19,10,18.31,17.9,21.13a.25.25,0,0,1,.15.29c-.78,2.7-1.92,4.32-3.49,4.95A4.47,4.47,0,0,1,44.73,29.36ZM23,2.51c3.35,12.21,8.42,20,16,24.33,3.2,1.87,5.57,2.45,7.24,1.77,1.39-.55,2.42-2,3.15-4.43-7.83-2.87-13.21-9.26-18-21.3A4.22,4.22,0,0,0,29,.59C27.51.18,25.83.9,23.77,2.1Z"/><path class="cls-1" d="M13.21,15.47A22.42,22.42,0,0,1,2.56,12.79a.23.23,0,0,1-.07-.32.22.22,0,0,1,.32-.08A22,22,0,0,0,16.09,14.8a.23.23,0,0,1,.27.2.24.24,0,0,1-.2.27A21.72,21.72,0,0,1,13.21,15.47Z"/><path class="cls-1" d="M29.33,11.42A2.66,2.66,0,1,1,32,8.76,2.67,2.67,0,0,1,29.33,11.42Zm0-4.85a2.19,2.19,0,1,0,2.19,2.19A2.19,2.19,0,0,0,29.33,6.57Z"/><path class="cls-1" d="M34,19.42a2.66,2.66,0,1,1,2.66-2.66A2.67,2.67,0,0,1,34,19.42Zm0-4.85a2.19,2.19,0,1,0,2.19,2.19A2.19,2.19,0,0,0,34,14.57Z"/><path class="cls-1" d="M40.54,26.15a2.67,2.67,0,1,1,2.66-2.66A2.67,2.67,0,0,1,40.54,26.15Zm0-4.85a2.19,2.19,0,1,0,2.18,2.19A2.19,2.19,0,0,0,40.54,21.3Z"/></g></g></svg>